<mxfile host="app.diagrams.net" modified="2024-03-22T03:21:47.279Z" agent="Mozilla/5.0 (Windows NT 10.0; Win64; x64) AppleWebKit/537.36 (KHTML, like Gecko) Chrome/122.0.0.0 Safari/537.36 Edg/122.0.0.0" version="24.0.7" etag="Tk0j5ZuEhRLw7JumWy2f" type="github">
  <diagram name="Page-1" id="oO6Gzd3eWbtK3RYgDm-8">
    <mxGraphModel>
      <root>
        <mxCell id="0" />
        <mxCell id="1" parent="0" />
      </root>
    </mxGraphModel>
  </diagram>
</mxfile>
